<?xml version="1.0" encoding="utf-8"?>
<!-- Generator: Adobe Illustrator 25.2.0, SVG Export Plug-In . SVG Version: 6.00 Build 0)  -->
<svg version="1.1" id="Layer_1" xmlns="http://www.w3.org/2000/svg" xmlns:xlink="http://www.w3.org/1999/xlink" x="0px" y="0px"
	 viewBox="0 0 126.2 136.6" style="enable-background:new 0 0 126.2 136.6;" xml:space="preserve">
<style type="text/css">
	.st0{fill:url(#SVGID_1_);}
	.st1{fill:url(#SVGID_2_);}
	.st2{fill:url(#SVGID_3_);}
	.st3{fill:url(#SVGID_4_);}
	.st4{fill:url(#SVGID_5_);}
	.st5{fill:url(#SVGID_6_);}
	.st6{fill:url(#SVGID_7_);}
	.st7{fill:url(#SVGID_8_);}
	.st8{fill:url(#SVGID_9_);}
	.st9{fill:url(#SVGID_10_);}
	.st10{fill:url(#SVGID_11_);}
	.st11{fill:url(#SVGID_12_);}
	.st12{fill:url(#SVGID_13_);}
	.st13{fill:url(#SVGID_14_);}
	.st14{fill:url(#SVGID_15_);}
	.st15{fill:url(#SVGID_16_);}
	.st16{fill:url(#SVGID_17_);}
	.st17{fill:url(#SVGID_18_);}
	.st18{fill:url(#SVGID_19_);}
	.st19{fill:url(#SVGID_20_);}
	.st20{fill:url(#SVGID_21_);}
	.st21{fill:url(#SVGID_22_);}
	.st22{fill:url(#SVGID_23_);}
	.st23{fill:url(#SVGID_24_);}
	.st24{fill:url(#SVGID_25_);}
	.st25{fill:url(#SVGID_26_);}
	.st26{fill:url(#SVGID_27_);}
	.st27{fill:url(#SVGID_28_);}
	.st28{fill:url(#SVGID_29_);}
	.st29{fill:url(#SVGID_30_);}
	.st30{fill:url(#SVGID_31_);}
	.st31{fill:url(#SVGID_32_);}
	.st32{fill:url(#SVGID_33_);}
	.st33{fill:url(#SVGID_34_);}
	.st34{fill:url(#SVGID_35_);}
	.st35{fill:url(#SVGID_36_);}
	.st36{fill:url(#SVGID_37_);}
	.st37{fill:url(#SVGID_38_);}
	.st38{fill:url(#SVGID_39_);}
	.st39{fill:url(#SVGID_40_);}
	.st40{fill:url(#SVGID_41_);}
	.st41{fill:url(#SVGID_42_);}
	.st42{fill:url(#SVGID_43_);}
	.st43{fill:url(#SVGID_44_);}
	.st44{fill:url(#SVGID_45_);}
	.st45{fill:url(#SVGID_46_);}
	.st46{fill:url(#SVGID_47_);}
	.st47{fill:url(#SVGID_48_);}
	.st48{fill:none;}
	.st49{fill:#E56015;}
	.st50{font-family:'Algerian';}
	.st51{font-size:26px;}
</style>
<g>
	
		<radialGradient id="SVGID_1_" cx="28.5182" cy="54.878" r="15.4054" gradientTransform="matrix(0.8734 -0.5379 0.5179 0.8408 -9.537 33.0764)" gradientUnits="userSpaceOnUse">
		<stop  offset="0" style="stop-color:#FFFA5F"/>
		<stop  offset="1" style="stop-color:#B53A00"/>
	</radialGradient>
	<path class="st0" d="M36,51.3c0.4-0.3,0.9-0.7,1.4-0.8c0.9-0.2,1.4,1.1,1.7,1.6c0.2,0.3,0.6,1.5,0.9,1.6c0.3,0.1,2.2-0.6,2.7-0.7
		c1.8-0.2,1.6,0.2,2-1.5c0.2-0.9,0.3-2.6,1.6-2.5c0.8,0.1,3,0.4,3.1,1.2c0.1,0.8-0.3,1.9-0.6,2.7c-0.3,0.9-0.5,0.8,0.3,1.2
		c0.9,0.5,1.8,1,2.5,1.7c0.4,0.4,0.3,0.6,0.7,0.3c0.8-0.5,1.9-1.5,2.9-1.7c0.9-0.1,1.6,1.5,2,2.2c1,1.7-1.8,2.6-3,3.3
		c0,0,0.4,3.7,0.4,4.2c0,0.2,2.4,0.6,2.7,0.6c1.6,0.3,1.5,1.1,1.1,2.5c-0.5,1.9-0.9,2.1-2.9,1.6c-0.7-0.2-1.4-0.3-2.1-0.6
		c-0.2-0.1-0.9,1.3-1,1.5c-0.2,0.3-1.6,1.5-1.6,1.7c0,0.4,1,1.5,1.3,1.9c1,1.6,1.1,2.2-0.6,3.2c-0.5,0.3-0.9,0.7-1.4,0.8
		c-1,0.2-1.6-1.4-2-2.1c-0.2-0.3-0.5-1.4-0.8-1.5c-0.2-0.1-2,0.6-2.3,0.7c-0.2,0-1.8,0.2-1.8,0.3l-0.4,1.5c-0.2,0.6-0.3,2.2-0.9,2.5
		c-0.6,0.3-2.9-0.2-3.5-0.6C37.1,77.2,39.3,75,39,74c0,0-4.1-2.1-3.8-2.3c-0.7,0.5-1.4,1-2.2,1.4c-1.4,0.9-1.9-0.4-2.5-1.5
		c-0.9-1.4-0.2-1.9,1.1-2.7l1.3-0.8c0.1-0.1-0.4-1.8-0.5-2c-0.1-0.8-0.1-1.6-0.1-2.5c0-0.2-0.7-0.2-0.8-0.2
		c-1.1-0.2-3.1-0.2-2.7-1.8c0.2-0.7,0.4-2.4,1-2.8c0.8-0.5,2.5,0.3,3.3,0.5c1,0.2,1.2-1,1.7-1.8c0.6-0.8,1.8-1.2,1.3-2.1
		c-0.4-0.6-0.9-1.2-1.2-1.9C34.1,52.4,35,51.9,36,51.3 M36.5,50.6c-0.7,0.5-2.1,1-2.4,1.9c-0.3,1,0.9,2.3,1.4,3.1
		c0.4,0.7-0.3,0.9-0.8,1.5c-0.2,0.3-1.4,2.1-1.5,2c-1-0.2-2.4-0.9-3.4-0.6c-1,0.3-1.1,1.7-1.3,2.5c-0.5,1.8,0.2,2.2,1.9,2.6
		c0.5,0.1,1,0.2,1.5,0.3c-0.1,1,0,2.1,0.3,3.1c0.2,1,0.4,0.9-0.5,1.4c-0.5,0.3-1.1,0.6-1.5,0.9c-1.2,1-0.2,2.1,0.3,3.1
		c1,1.6,1.8,1.5,3.3,0.5c0.4-0.3,0.9-0.6,1.3-0.9c0.7,0.7,1.6,1.2,2.5,1.7c0.6,0.3,1,0.1,0.8,0.8c-0.1,0.5-0.3,1-0.4,1.5
		c-0.2,0.7-0.5,1.7,0.2,2.3c0.6,0.4,2.8,0.9,3.5,0.8c1.2-0.2,1.3-2,1.5-2.8c0.1-0.4,0.2-0.9,0.3-1.3c1.1-0.1,2.1-0.3,3.1-0.6
		c0.7-0.2,0.5-0.1,0.8,0.4c0.2,0.4,0.4,0.7,0.6,1.1c0.4,0.7,0.9,1.9,1.9,1.8c0.8-0.1,2.1-1,2.7-1.5c1.6-1.2-0.2-3.1-1-4.1
		c-0.4-0.5-0.6-0.5,0-1c0.4-0.4,0.7-0.8,1-1.2c0.3-0.4,0.6-0.9,0.8-1.3c0.4,0.1,0.7,0.2,1.1,0.3c1.4,0.4,3.4,1.2,4-0.8
		c0.2-0.9,0.8-2.3,0.4-3.1c-0.5-0.8-2.1-0.9-2.9-1c-0.7-0.1-1,0-1-0.7c0-1-0.1-1.9-0.3-2.8c-0.3-1.4,3.9-1.5,3.1-3.7
		c-0.3-0.8-1.3-2.6-2.1-2.8c-1-0.2-2.3,0.9-3.1,1.4c-0.8,0.5-0.9-0.2-1.6-0.7c-0.6-0.5-2.2-1-2-1.7c0.6-1.9,1.4-3.7-1.1-4.1
		c-0.8-0.2-2.1-0.7-2.8,0c-0.7,0.7-0.8,2.2-1,3.1c-0.2,0.8-0.8,0.5-1.6,0.6c-0.7,0.1-2.3,0.8-2.6,0.3C39.3,51.6,38.5,49.3,36.5,50.6
		"/>
	
		<radialGradient id="SVGID_2_" cx="28.3301" cy="54.6274" r="4.6982" gradientTransform="matrix(0.8734 -0.5379 0.5179 0.8408 -9.537 33.0764)" gradientUnits="userSpaceOnUse">
		<stop  offset="0" style="stop-color:#FFFA5F"/>
		<stop  offset="1" style="stop-color:#B53A00"/>
	</radialGradient>
	<path class="st1" d="M39.3,66.4c3.1,5.1,11.6-0.2,8.5-5.2C44.6,56.1,36.1,61.3,39.3,66.4 M39.6,66.2c-2.9-4.7,5-9.5,7.8-4.8
		C50.3,66,42.5,70.9,39.6,66.2"/>
	
		<radialGradient id="SVGID_3_" cx="28.3295" cy="54.6274" r="8.0971" gradientTransform="matrix(0.8734 -0.5379 0.5179 0.8408 -9.537 33.0764)" gradientUnits="userSpaceOnUse">
		<stop  offset="0" style="stop-color:#FFFA5F"/>
		<stop  offset="1" style="stop-color:#B53A00"/>
	</radialGradient>
	<path class="st2" d="M39.5,57.2c-3.8,2.3-5.6,7.3-3.3,11.1s7.6,4.3,11.4,2c3.8-2.3,5.6-7.3,3.3-11.1C48.5,55.5,43.2,54.9,39.5,57.2
		 M46.9,69.3c-3.2,2-7.7,1.5-9.6-1.7s-0.4-7.4,2.8-9.4c3.2-2,7.7-1.5,9.6,1.7C51.7,63.1,50.1,67.3,46.9,69.3"/>
	<radialGradient id="SVGID_4_" cx="39.7573" cy="57.4028" r="7.558" gradientUnits="userSpaceOnUse">
		<stop  offset="0" style="stop-color:#FFFA5F"/>
		<stop  offset="1" style="stop-color:#B53A00"/>
	</radialGradient>
	<path class="st3" d="M33,65.5c0-0.6,0.1-1.2,0.1-1.8C32.6,63.9,32.9,65.1,33,65.5 M46.5,49.5c-1-1-1.6,2.1-1.7,2.6
		c0,0.2-0.1,1.2-0.3,1.2c-1.4-0.1-2.9,0.1-4.2,0.6c0.2,0.8,2.2-0.1,3-0.2c0.6-0.1,1.4,0.3,1.6-0.3c0.3-1,0.5-2.1,0.9-3.1
		c0.1-0.2,0.9-0.8,1-0.5C46.7,49.7,46.6,49.6,46.5,49.5 M34.1,59.8c0.4-0.8,1-1.6,1.7-2.2c0.5-0.4,1.3-0.7,0.6-1.3
		C35.8,56.7,33.4,59.1,34.1,59.8"/>
	<radialGradient id="SVGID_5_" cx="36.1581" cy="51.6738" r="1.2371" gradientUnits="userSpaceOnUse">
		<stop  offset="0" style="stop-color:#FFFA5F"/>
		<stop  offset="1" style="stop-color:#B53A00"/>
	</radialGradient>
	<path class="st4" d="M37.6,50.8c0.3,0.5-2.6,2.2-2.9,1.8C34.4,52.1,37.3,50.3,37.6,50.8"/>
	<radialGradient id="SVGID_6_" cx="51.2862" cy="76.2322" r="1.2263" gradientUnits="userSpaceOnUse">
		<stop  offset="0" style="stop-color:#FFFA5F"/>
		<stop  offset="1" style="stop-color:#B53A00"/>
	</radialGradient>
	<path class="st5" d="M51.1,76c-0.1,0.1-1.5,0.9-1.3,1.1c0.2,0.4,3.1-1.4,2.9-1.8C52.6,75.1,51.3,75.9,51.1,76"/>
	<radialGradient id="SVGID_7_" cx="33.4865" cy="72.2682" r="1.2258" gradientUnits="userSpaceOnUse">
		<stop  offset="0" style="stop-color:#FFFA5F"/>
		<stop  offset="1" style="stop-color:#B53A00"/>
	</radialGradient>
	<path class="st6" d="M33.3,72c-0.1,0.1-1.5,0.9-1.3,1.1c0.2,0.4,3.1-1.4,2.9-1.8C34.8,71.1,33.5,71.9,33.3,72"/>
	<radialGradient id="SVGID_8_" cx="55.8605" cy="58.4869" r="1.226" gradientUnits="userSpaceOnUse">
		<stop  offset="0" style="stop-color:#FFFA5F"/>
		<stop  offset="1" style="stop-color:#B53A00"/>
	</radialGradient>
	<path class="st7" d="M55.7,58.2c-0.1,0.1-1.5,0.9-1.3,1.1c0.2,0.4,3.1-1.4,2.9-1.8C57.1,57.3,55.8,58.2,55.7,58.2"/>
	<radialGradient id="SVGID_9_" cx="40.2309" cy="78.1057" r="1.1906" gradientUnits="userSpaceOnUse">
		<stop  offset="0" style="stop-color:#FFFA5F"/>
		<stop  offset="1" style="stop-color:#B53A00"/>
	</radialGradient>
	<path class="st8" d="M38.7,77.7c-0.3,0.2,1,0.6,1,0.6c0.5,0.1,1.7,0.5,2.2,0.2c0,0-0.9-0.5-1-0.6C40.3,77.8,39.2,77.4,38.7,77.7"/>
	<radialGradient id="SVGID_10_" cx="55.6182" cy="68.2795" r="1.1926" gradientUnits="userSpaceOnUse">
		<stop  offset="0" style="stop-color:#FFFA5F"/>
		<stop  offset="1" style="stop-color:#B53A00"/>
	</radialGradient>
	<path class="st9" d="M54,67.8c-0.1,0.1,3,1.5,3.2,0.8C57.3,68.1,54.4,67.6,54,67.8"/>
	<radialGradient id="SVGID_11_" cx="29.3316" cy="60.7718" r="1.2236" gradientUnits="userSpaceOnUse">
		<stop  offset="0" style="stop-color:#FFFA5F"/>
		<stop  offset="1" style="stop-color:#B53A00"/>
	</radialGradient>
	<path class="st10" d="M29.8,59.1c0.3,0.1-0.5,3.4-0.9,3.3C28.6,62.4,29.4,59,29.8,59.1"/>
	<radialGradient id="SVGID_12_" cx="48.5792" cy="51.9375" r="1.2103" gradientUnits="userSpaceOnUse">
		<stop  offset="0" style="stop-color:#FFFA5F"/>
		<stop  offset="1" style="stop-color:#B53A00"/>
	</radialGradient>
	<path class="st11" d="M49,50.3c-0.4,0.2-1.1,3.2-0.8,3.3C48.8,53.7,49,50.3,49,50.3"/>
	<radialGradient id="SVGID_13_" cx="58.06" cy="67.0872" r="1.2097" gradientUnits="userSpaceOnUse">
		<stop  offset="0" style="stop-color:#FFFA5F"/>
		<stop  offset="1" style="stop-color:#B53A00"/>
	</radialGradient>
	<path class="st12" d="M58.5,65.4c-0.4,0.2-1.1,3.2-0.8,3.3C58.3,68.9,58.5,65.4,58.5,65.4"/>
	<radialGradient id="SVGID_14_" cx="42.2387" cy="76.8556" r="1.2022" gradientUnits="userSpaceOnUse">
		<stop  offset="0" style="stop-color:#FFFA5F"/>
		<stop  offset="1" style="stop-color:#B53A00"/>
	</radialGradient>
	<path class="st13" d="M42.6,75.2c-0.4,0.2-0.5,1.2-0.6,1.6c0,0.1-0.2,1.7-0.2,1.7C42.5,78.6,42.6,75.2,42.6,75.2"/>
	<radialGradient id="SVGID_15_" cx="41.783" cy="78.3838" r="0.1126" gradientUnits="userSpaceOnUse">
		<stop  offset="0" style="stop-color:#FFFA5F"/>
		<stop  offset="1" style="stop-color:#B53A00"/>
	</radialGradient>
	<path class="st14" d="M41.8,78.3c0,0.1,0,0.1,0.1,0.2C42.1,78.6,41.5,78.1,41.8,78.3"/>
	<radialGradient id="SVGID_16_" cx="31.5135" cy="70.4849" r="1.7784" gradientUnits="userSpaceOnUse">
		<stop  offset="0" style="stop-color:#FFFA5F"/>
		<stop  offset="1" style="stop-color:#B53A00"/>
	</radialGradient>
	<path class="st15" d="M32.9,68.4c0.2,0.3-2.6,1.4-2.5,1.9c0.1,0.3,1.2,2.2,1.1,2.3c-0.4,0.2-1.3-1.9-1.4-2.2
		C29.8,69.7,32.8,68.2,32.9,68.4"/>
	<radialGradient id="SVGID_17_" cx="38.9175" cy="75.7293" r="1.1038" gradientUnits="userSpaceOnUse">
		<stop  offset="0" style="stop-color:#FFFA5F"/>
		<stop  offset="1" style="stop-color:#B53A00"/>
	</radialGradient>
	<path class="st16" d="M39.1,75.8c0,0.1-0.4,1.5-0.6,1.4c-0.3-0.1,0.5-3,0.8-3C39.5,74.3,39.2,75.7,39.1,75.8"/>
	<radialGradient id="SVGID_18_" cx="53.9151" cy="55.5229" r="1.2574" gradientUnits="userSpaceOnUse">
		<stop  offset="0" style="stop-color:#FFFA5F"/>
		<stop  offset="1" style="stop-color:#B53A00"/>
	</radialGradient>
	<path class="st17" d="M55.4,54.6c0.1,0.2-2.9,2.1-3,1.8C52.3,56.2,55.3,54.4,55.4,54.6"/>
	<radialGradient id="SVGID_19_" cx="46.862" cy="66.4169" r="5.6662" gradientUnits="userSpaceOnUse">
		<stop  offset="0" style="stop-color:#FFFA5F"/>
		<stop  offset="1" style="stop-color:#B53A00"/>
	</radialGradient>
	<path class="st18" d="M51.7,61.1c1.3,5.7-4.5,11.7-10.4,10.6c0.4,0.7,2.6,0.6,3.3,0.6c2.4-0.2,4.6-1.5,6.1-3.4
		C52.6,66.5,52.8,63.7,51.7,61.1 M51.6,60.6c0,0.2,0.1,0.3,0.1,0.4C51.8,61.3,51.6,60.6,51.6,60.6"/>
	<radialGradient id="SVGID_20_" cx="48.8315" cy="68.2523" r="2.6551" gradientUnits="userSpaceOnUse">
		<stop  offset="0" style="stop-color:#FFFA5F"/>
		<stop  offset="1" style="stop-color:#B53A00"/>
	</radialGradient>
	<path class="st19" d="M51.4,65.5c-0.9,2.4-2.9,4.4-5.2,5.4C48.6,70,50.6,68,51.4,65.5"/>
	<radialGradient id="SVGID_21_" cx="41.3819" cy="61.7882" r="4.9273" gradientUnits="userSpaceOnUse">
		<stop  offset="0" style="stop-color:#FFFA5F"/>
		<stop  offset="1" style="stop-color:#B53A00"/>
	</radialGradient>
	<path class="st20" d="M36.9,66.6c-1.1-1.8-0.5-4.6,0.6-6.2c1.3-1.8,3.2-3,5.4-3.3c0.3,0,3.6-0.2,3.6,0.4c0-0.2-2.4-0.3-2.5-0.3
		c-2.1,0.1-4.1,1.3-5.5,2.8C37.2,61.5,35.8,64.8,36.9,66.6"/>
	<radialGradient id="SVGID_22_" cx="40.8743" cy="61.5023" r="5.924" gradientUnits="userSpaceOnUse">
		<stop  offset="0" style="stop-color:#FFFA5F"/>
		<stop  offset="1" style="stop-color:#B53A00"/>
	</radialGradient>
	<path class="st21" d="M35.5,67.3c-1.3-2.2-0.5-5.7,0.9-7.7c1.5-2.2,3.8-3.6,6.5-3.9c1-0.1,2-0.1,2.9,0.1c0.1,0,1.1,0.4,1,0.4
		c-0.1,0.1-0.7-0.2-0.8-0.2c-0.7-0.2-1.5-0.3-2.3-0.3c-2.6,0.1-5,1.5-6.6,3.5c-1.3,1.6-2,3.6-2,5.6C35.2,65.5,35.2,66.8,35.5,67.3"
		/>
	<radialGradient id="SVGID_23_" cx="45.3337" cy="65.2702" r="5.2256" gradientUnits="userSpaceOnUse">
		<stop  offset="0" style="stop-color:#FFFA5F"/>
		<stop  offset="1" style="stop-color:#B53A00"/>
	</radialGradient>
	<path class="st22" d="M49.8,60.1c0,0,0.4,1.5,0.4,1.6c0.2,1.2,0.1,2.5-0.4,3.7c-1.6,3.8-5.9,5.8-9.7,4.6
		C45.8,72.4,53,65.7,49.8,60.1"/>
	<radialGradient id="SVGID_24_" cx="45.1054" cy="67.6274" r="4.1938" gradientUnits="userSpaceOnUse">
		<stop  offset="0" style="stop-color:#FFFA5F"/>
		<stop  offset="1" style="stop-color:#B53A00"/>
	</radialGradient>
	<path class="st23" d="M50.3,64.8c-0.1,0.3-0.2,0.5-0.3,0.8C50.2,65.4,50.3,65.1,50.3,64.8 M39.9,69.9c-0.1,0,1.7,0.5,1.8,0.5
		C41.4,70.4,40.1,69.8,39.9,69.9"/>
	
		<radialGradient id="SVGID_25_" cx="46.2886" cy="76.6376" r="15.2576" gradientTransform="matrix(0.8734 -0.5379 0.5179 0.8408 -9.537 33.0764)" gradientUnits="userSpaceOnUse">
		<stop  offset="0" style="stop-color:#FFFA5F"/>
		<stop  offset="1" style="stop-color:#B53A00"/>
	</radialGradient>
	<path class="st24" d="M60.2,62c0.4-0.4,0.8-0.8,1.2-1.1c0.8-0.4,1.6,0.8,2,1.2c0.2,0.3,0.9,1.3,1.2,1.4c0.3,0.1,2-1.1,2.5-1.2
		c1.7-0.6,1.6-0.2,1.7-1.9c0-0.9-0.3-2.6,1-2.8c0.8-0.1,3-0.3,3.3,0.5c0.3,0.8,0.1,1.9,0,2.7c-0.1,0.9-0.3,0.9,0.6,1.1
		c1,0.2,2,0.6,2.9,1.2c0.5,0.3,0.4,0.5,0.8,0.1c0.7-0.7,1.6-1.9,2.5-2.2c0.9-0.3,1.9,1.1,2.4,1.7c1.3,1.4-1.2,2.9-2.2,3.8
		c0,0,1.2,3.5,1.3,4c0,0.2,2.5,0,2.8,0c1.6,0,1.7,0.7,1.6,2.2c-0.1,2-0.5,2.2-2.5,2.2c-0.7,0-1.5,0-2.2-0.1c-0.2,0-0.6,1.4-0.7,1.7
		c-0.2,0.3-1.2,1.8-1.2,2c0.1,0.4,1.3,1.3,1.7,1.6c1.4,1.4,1.5,1.9,0.1,3.2c-0.4,0.4-0.7,0.8-1.2,1.1c-0.9,0.4-1.9-1.1-2.4-1.6
		c-0.2-0.3-0.8-1.2-1.2-1.3c-0.3-0.1-1.8,1-2.1,1.2c-0.2,0.1-1.7,0.5-1.7,0.6l0,1.5c0,0.7,0.2,2.1-0.4,2.7c-0.5,0.4-2.9,0.4-3.5,0.2
		c-1.5-0.6,0.2-3.2-0.3-4.1c0,0-4.5-1.2-4.3-1.4c-0.6,0.6-1.2,1.3-1.9,1.8c-1.2,1.1-2,0-2.8-0.9c-1.2-1.2-0.6-1.8,0.5-2.8l1.1-1
		c0.1-0.1-0.8-1.6-0.9-1.8c-0.3-0.8-0.5-1.6-0.6-2.4c0-0.2-0.7-0.1-0.9-0.1c-1.1,0-3.1,0.4-3.1-1.1c0-0.7-0.2-2.4,0.4-2.9
		c0.6-0.6,2.5-0.3,3.3-0.2c1,0,0.9-1.2,1.3-2.1c0.4-0.9,1.5-1.6,0.8-2.3c-0.5-0.5-1.1-1-1.6-1.6C58.5,63.5,59.3,62.8,60.2,62
		 M60.5,61.2c-0.6,0.6-1.9,1.4-1.9,2.3c0,1,1.4,2,2.1,2.7c0.6,0.6-0.1,1-0.4,1.6c-0.2,0.3-0.9,2.3-1.1,2.3c-1,0-2.6-0.3-3.5,0.2
		C54.8,70.7,55,72.1,55,73c-0.1,1.8,0.7,2.1,2.4,2.1c0.5,0,1,0,1.6,0c0.2,1,0.5,2,0.9,2.9c0.4,0.9,0.6,0.8-0.2,1.5
		c-0.4,0.4-0.9,0.8-1.3,1.2c-1,1.2,0.2,2.1,1,2.9c1.3,1.3,2.1,1.1,3.4-0.2c0.4-0.4,0.8-0.7,1.1-1.1c0.9,0.5,1.8,0.9,2.8,1.1
		c0.6,0.2,1-0.1,1,0.6c0,0.5-0.1,1-0.1,1.5c0,0.7-0.1,1.8,0.7,2.2c0.7,0.3,2.9,0.3,3.6,0c1.1-0.5,0.8-2.2,0.8-3.1c0-0.5,0-0.9,0-1.4
		c1-0.3,2-0.7,2.9-1.3c0.6-0.4,0.5-0.2,0.9,0.3c0.3,0.3,0.6,0.6,0.9,0.9c0.5,0.6,1.3,1.7,2.3,1.3c0.8-0.3,1.8-1.4,2.4-2
		c1.3-1.4-0.9-2.9-1.8-3.8c-0.5-0.4-0.6-0.3-0.3-0.9c0.3-0.4,0.5-0.9,0.7-1.4c0.2-0.5,0.4-0.9,0.6-1.4c0.4,0,0.8,0.1,1.1,0.1
		c1.5,0.1,3.6,0.5,3.7-1.6c0-0.9,0.3-2.4-0.3-3c-0.7-0.7-2.2-0.4-3.1-0.4c-0.7,0-1,0.2-1.1-0.5c-0.2-0.9-0.5-1.8-0.9-2.7
		c-0.6-1.3,3.6-2.3,2.2-4.2c-0.5-0.7-1.8-2.2-2.7-2.2c-1,0-2,1.4-2.7,2c-0.6,0.6-1,0-1.7-0.3c-0.7-0.3-2.4-0.5-2.3-1.2
		c0.2-2,0.6-3.8-2-3.8c-0.9,0-2.3-0.3-2.8,0.6c-0.5,0.8-0.3,2.3-0.3,3.2c0,0.8-0.7,0.7-1.4,0.9c-0.6,0.2-2.1,1.3-2.5,0.8
		C63.5,61.6,62.2,59.6,60.5,61.2"/>
	
		<radialGradient id="SVGID_26_" cx="46.0698" cy="76.4095" r="4.7164" gradientTransform="matrix(0.8734 -0.5379 0.5179 0.8408 -9.537 33.0764)" gradientUnits="userSpaceOnUse">
		<stop  offset="0" style="stop-color:#FFFA5F"/>
		<stop  offset="1" style="stop-color:#B53A00"/>
	</radialGradient>
	<path class="st25" d="M66.7,76c4.2,4.3,11.4-2.6,7.2-6.8C69.7,64.8,62.5,71.7,66.7,76 M66.9,75.7c-3.8-3.9,2.8-10.3,6.7-6.3
		S70.8,79.6,66.9,75.7"/>
	
		<radialGradient id="SVGID_27_" cx="46.0684" cy="76.4093" r="8.0926" gradientTransform="matrix(0.8734 -0.5379 0.5179 0.8408 -9.537 33.0764)" gradientUnits="userSpaceOnUse">
		<stop  offset="0" style="stop-color:#FFFA5F"/>
		<stop  offset="1" style="stop-color:#B53A00"/>
	</radialGradient>
	<path class="st26" d="M64.9,67c-3.2,3-4,8.2-0.9,11.4c3.1,3.2,8.4,2.6,11.6-0.4c3.2-3,4-8.2,0.9-11.4C73.4,63.4,68.1,64,64.9,67
		 M74.8,77.2c-2.7,2.6-7.2,3-9.8,0.3c-2.6-2.7-2-7.1,0.7-9.7s7.2-3,9.8-0.3C78.2,70.2,77.5,74.6,74.8,77.2"/>
	<radialGradient id="SVGID_28_" cx="65.1247" cy="67.1816" r="7.5323" gradientUnits="userSpaceOnUse">
		<stop  offset="0" style="stop-color:#FFFA5F"/>
		<stop  offset="1" style="stop-color:#B53A00"/>
	</radialGradient>
	<path class="st27" d="M60.3,76.4c-0.1-0.6-0.2-1.2-0.3-1.7C59.5,75,60.1,76,60.3,76.4 M70.2,58.1c-1.2-0.7-1.1,2.4-1.1,2.9
		c0,0.2,0.1,1.2-0.1,1.2c-1.4,0.2-2.8,0.7-4,1.5c0.4,0.8,2.2-0.6,2.9-0.8c0.5-0.2,1.4,0,1.5-0.6c0.1-1.1,0-2.2,0.2-3.2
		c0-0.3,0.7-1,0.9-0.7L70.2,58.1 M60.1,70.6c0.2-0.9,0.6-1.7,1.2-2.5c0.4-0.5,1.1-1,0.3-1.4C61.2,67.3,59.3,70.1,60.1,70.6"/>
	<radialGradient id="SVGID_29_" cx="60.4412" cy="62.3323" r="1.2362" gradientUnits="userSpaceOnUse">
		<stop  offset="0" style="stop-color:#FFFA5F"/>
		<stop  offset="1" style="stop-color:#B53A00"/>
	</radialGradient>
	<path class="st28" d="M61.7,61.2c0.4,0.4-2.1,2.7-2.5,2.3C58.8,63.1,61.3,60.8,61.7,61.2"/>
	<radialGradient id="SVGID_30_" cx="80.6224" cy="83.0116" r="1.2254" gradientUnits="userSpaceOnUse">
		<stop  offset="0" style="stop-color:#FFFA5F"/>
		<stop  offset="1" style="stop-color:#B53A00"/>
	</radialGradient>
	<path class="st29" d="M80.4,82.8c-0.1,0.1-1.2,1.1-1,1.4c0.3,0.3,2.8-2,2.5-2.3C81.6,81.6,80.5,82.7,80.4,82.8"/>
	<radialGradient id="SVGID_31_" cx="62.2443" cy="82.8687" r="1.2245" gradientUnits="userSpaceOnUse">
		<stop  offset="0" style="stop-color:#FFFA5F"/>
		<stop  offset="1" style="stop-color:#B53A00"/>
	</radialGradient>
	<path class="st30" d="M62,82.7c-0.1,0.1-1.3,1.1-1,1.4c0.3,0.3,2.8-2,2.5-2.3C63.2,81.5,62.2,82.6,62,82.7"/>
	<radialGradient id="SVGID_32_" cx="81.3061" cy="64.8431" r="1.2246" gradientUnits="userSpaceOnUse">
		<stop  offset="0" style="stop-color:#FFFA5F"/>
		<stop  offset="1" style="stop-color:#B53A00"/>
	</radialGradient>
	<path class="st31" d="M81.1,64.6c-0.1,0.1-1.2,1.1-1,1.4c0.3,0.3,2.8-2,2.5-2.3C82.3,63.5,81.2,64.5,81.1,64.6"/>
	<radialGradient id="SVGID_33_" cx="70.1464" cy="87.1264" r="1.1971" gradientUnits="userSpaceOnUse">
		<stop  offset="0" style="stop-color:#FFFA5F"/>
		<stop  offset="1" style="stop-color:#B53A00"/>
	</radialGradient>
	<path class="st32" d="M68.5,87.1c-0.2,0.2,1.1,0.3,1.1,0.3c0.5,0,1.8,0.2,2.2-0.2c0,0-1-0.3-1.1-0.3C70.2,86.8,68.9,86.7,68.5,87.1
		"/>
	<radialGradient id="SVGID_34_" cx="83.158" cy="74.3571" r="1.198" gradientUnits="userSpaceOnUse">
		<stop  offset="0" style="stop-color:#FFFA5F"/>
		<stop  offset="1" style="stop-color:#B53A00"/>
	</radialGradient>
	<path class="st33" d="M81.5,74.3c-0.1,0.1,3.3,0.8,3.3,0.1C84.8,73.9,81.8,74,81.5,74.3"/>
	<radialGradient id="SVGID_35_" cx="55.6788" cy="72.5803" r="1.2126" gradientUnits="userSpaceOnUse">
		<stop  offset="0" style="stop-color:#FFFA5F"/>
		<stop  offset="1" style="stop-color:#B53A00"/>
	</radialGradient>
	<path class="st34" d="M55.7,70.9c0.3,0,0.2,3.4-0.1,3.4C55.3,74.3,55.4,70.9,55.7,70.9"/>
	<radialGradient id="SVGID_36_" cx="72.7641" cy="59.9939" r="1.206" gradientUnits="userSpaceOnUse">
		<stop  offset="0" style="stop-color:#FFFA5F"/>
		<stop  offset="1" style="stop-color:#B53A00"/>
	</radialGradient>
	<path class="st35" d="M72.8,58.3c-0.3,0.3-0.4,3.4-0.1,3.4C73.3,61.7,72.8,58.3,72.8,58.3"/>
	<radialGradient id="SVGID_37_" cx="85.3645" cy="72.7199" r="1.2058" gradientUnits="userSpaceOnUse">
		<stop  offset="0" style="stop-color:#FFFA5F"/>
		<stop  offset="1" style="stop-color:#B53A00"/>
	</radialGradient>
	<path class="st36" d="M85.4,71c-0.3,0.3-0.4,3.4-0.1,3.4C85.9,74.4,85.4,71,85.4,71"/>
	<radialGradient id="SVGID_38_" cx="71.8791" cy="85.4979" r="1.2044" gradientUnits="userSpaceOnUse">
		<stop  offset="0" style="stop-color:#FFFA5F"/>
		<stop  offset="1" style="stop-color:#B53A00"/>
	</radialGradient>
	<path class="st37" d="M71.9,83.8c-0.3,0.3-0.2,1.3-0.3,1.7c0,0.2,0.1,1.7,0.2,1.7C72.5,87.1,71.9,83.9,71.9,83.8"/>
	<radialGradient id="SVGID_39_" cx="71.7282" cy="87.0792" r="0.1137" gradientUnits="userSpaceOnUse">
		<stop  offset="0" style="stop-color:#FFFA5F"/>
		<stop  offset="1" style="stop-color:#B53A00"/>
	</radialGradient>
	<path class="st38" d="M71.7,87c0,0.1,0.1,0.1,0.1,0.2C72,87.2,71.4,86.9,71.7,87"/>
	<radialGradient id="SVGID_40_" cx="59.6708" cy="81.4147" r="1.7514" gradientUnits="userSpaceOnUse">
		<stop  offset="0" style="stop-color:#FFFA5F"/>
		<stop  offset="1" style="stop-color:#B53A00"/>
	</radialGradient>
	<path class="st39" d="M60.8,79.2c0.2,0.2-2.2,1.9-2,2.3c0.1,0.2,1.7,1.9,1.6,2c-0.3,0.2-1.6-1.6-1.8-1.8
		C58.1,81.1,60.7,79.1,60.8,79.2"/>
	<radialGradient id="SVGID_41_" cx="68.3264" cy="85.0967" r="1.0923" gradientUnits="userSpaceOnUse">
		<stop  offset="0" style="stop-color:#FFFA5F"/>
		<stop  offset="1" style="stop-color:#B53A00"/>
	</radialGradient>
	<path class="st40" d="M68.6,85.1c0,0.1,0,1.5-0.3,1.5c-0.3,0-0.2-3.1,0.1-3.1C68.6,83.6,68.6,85,68.6,85.1"/>
	<radialGradient id="SVGID_42_" cx="78.7529" cy="62.3721" r="1.2558" gradientUnits="userSpaceOnUse">
		<stop  offset="0" style="stop-color:#FFFA5F"/>
		<stop  offset="1" style="stop-color:#B53A00"/>
	</radialGradient>
	<path class="st41" d="M80,61.2c0.2,0.2-2.4,2.6-2.6,2.4C77.3,63.4,79.8,61,80,61.2"/>
	<radialGradient id="SVGID_43_" cx="74.5588" cy="74.3404" r="5.7088" gradientUnits="userSpaceOnUse">
		<stop  offset="0" style="stop-color:#FFFA5F"/>
		<stop  offset="1" style="stop-color:#B53A00"/>
	</radialGradient>
	<path class="st42" d="M77.8,68.2c3.1,5.4,1.8,13.1-8,12.4c0.6,0.6,2.7,0.1,3.3-0.1c2.3-0.7,4.2-2.4,5.3-4.5
		C79.8,73.3,79.4,70.5,77.8,68.2 M77.6,67.8c0,0.2,0.1,0.3,0.2,0.4C77.9,68.4,77.6,67.8,77.6,67.8"/>
	<radialGradient id="SVGID_44_" cx="76.4865" cy="75.7815" r="2.6409" gradientUnits="userSpaceOnUse">
		<stop  offset="0" style="stop-color:#FFFA5F"/>
		<stop  offset="1" style="stop-color:#B53A00"/>
	</radialGradient>
	<path class="st43" d="M78.5,72.6c-0.3,2.5-1.9,4.9-3.9,6.3C76.6,77.5,78.1,75.1,78.5,72.6"/>
	<radialGradient id="SVGID_45_" cx="67.4872" cy="71.1127" r="4.9605" gradientUnits="userSpaceOnUse">
		<stop  offset="0" style="stop-color:#FFFA5F"/>
		<stop  offset="1" style="stop-color:#B53A00"/>
	</radialGradient>
	<path class="st44" d="M64.4,76.6c-1.5-1.5-1.5-4.3-0.7-6.2c0.8-2,2.5-3.6,4.6-4.3c0.3-0.1,3.6-0.9,3.6-0.3c0-0.2-2.4,0.2-2.6,0.2
		c-2.1,0.5-3.7,2.1-4.8,3.9C63.6,71.6,62.9,75.1,64.4,76.6"/>
	<radialGradient id="SVGID_46_" cx="66.8878" cy="71.0056" r="5.9286" gradientUnits="userSpaceOnUse">
		<stop  offset="0" style="stop-color:#FFFA5F"/>
		<stop  offset="1" style="stop-color:#B53A00"/>
	</radialGradient>
	<path class="st45" d="M63.2,77.7c-1.8-1.8-1.7-5.4-0.7-7.6c1-2.4,3-4.3,5.5-5.2c0.9-0.3,1.9-0.5,2.9-0.5c0.1,0,1.2,0.1,1.1,0.2
		c-0.1,0.1-0.7,0-0.9,0c-0.8,0-1.5,0-2.3,0.2c-2.5,0.6-4.6,2.5-5.8,4.8c-1,1.8-1.2,3.9-0.7,5.8C62.4,76,62.8,77.2,63.2,77.7"/>
	<radialGradient id="SVGID_47_" cx="72.733" cy="73.5082" r="5.2229" gradientUnits="userSpaceOnUse">
		<stop  offset="0" style="stop-color:#FFFA5F"/>
		<stop  offset="1" style="stop-color:#B53A00"/>
	</radialGradient>
	<path class="st46" d="M75.7,67.6c0,0,0.7,1.4,0.8,1.5c0.5,1.2,0.6,2.4,0.4,3.7c-0.7,4.1-4.5,6.8-8.6,6.5
		C74.4,80.4,80,72.4,75.7,67.6"/>
	<radialGradient id="SVGID_48_" cx="72.6326" cy="75.7601" r="4.1358" gradientUnits="userSpaceOnUse">
		<stop  offset="0" style="stop-color:#FFFA5F"/>
		<stop  offset="1" style="stop-color:#B53A00"/>
	</radialGradient>
	<path class="st47" d="M77.2,72.2c0,0.3,0,0.6-0.1,0.8C77.2,72.7,77.2,72.4,77.2,72.2 M68,79.3c-0.1,0.1,1.8,0.1,1.9,0.1
		C69.6,79.4,68.2,79.1,68,79.3"/>
</g>
<g>
	<rect x="12.7" y="80.9" class="st48" width="122.4" height="45.5"/>
	<text transform="matrix(1 0 0 1 12.7493 98.2295)" class="st49 st50 st51">Mr Auto</text>
</g>
</svg>
