<?xml version="1.0" encoding="UTF-8"?>
<svg enable-background="new 0 0 126.176 136.638" viewBox="0 0 126.176 136.638" xmlns="http://www.w3.org/2000/svg">
 <defs>
  <linearGradient id="h" x1="-243.97" x2="-243.01" gradientTransform="matrix(776.01 550.01 550.01 -776.01 -65411 4.9308e5)" gradientUnits="userSpaceOnUse">
   <stop stop-color="#fff" offset="0"/>
   <stop offset="1"/>
  </linearGradient>
  <linearGradient id="g" x1="-243.25" x2="-242.31" gradientTransform="matrix(0 -215 -215 0 1.0253e5 -52176)" gradientUnits="userSpaceOnUse">
   <stop stop-color="#fff" offset="0"/>
   <stop offset="1"/>
  </linearGradient>
  <linearGradient id="d" x1="-20.343" x2="892.43" gradientTransform="matrix(.9774 -.2115 .2115 .9774 -204.49 341.92)" gradientUnits="userSpaceOnUse">
   <stop stop-color="#fff" offset="0"/>
   <stop offset="1"/>
  </linearGradient>
  <linearGradient id="c" x1="247.47" x2="461.86" gradientTransform="matrix(.9774 -.2115 .2115 .9774 -204.49 341.92)" gradientUnits="userSpaceOnUse">
   <stop stop-color="#fff" offset="0"/>
   <stop offset="1"/>
  </linearGradient>
  <radialGradient id="a" cx="40.19" cy="40.039" r="39.748" gradientUnits="userSpaceOnUse">
   <stop stop-color="#fffa5f" offset="0"/>
   <stop stop-color="#b53a00" offset="1"/>
  </radialGradient>
  <radialGradient id="f" cx="39.623" cy="39.519" r="21.1" gradientUnits="userSpaceOnUse">
   <stop stop-color="#fffa5f" offset="0"/>
   <stop stop-color="#fef85e" offset=".3945"/>
   <stop stop-color="#fcf15b" offset=".5366"/>
   <stop stop-color="#f7e655" offset=".6379"/>
   <stop stop-color="#f1d54c" offset=".7199"/>
   <stop stop-color="#e8bf42" offset=".7901"/>
   <stop stop-color="#dea334" offset=".8522"/>
   <stop stop-color="#d18324" offset=".9084"/>
   <stop stop-color="#c35f12" offset=".9583"/>
   <stop stop-color="#b53a00" offset="1"/>
  </radialGradient>
  <radialGradient id="e" cx="336.28" cy="-178.16" r="39.747" gradientTransform="matrix(.9774 -.2115 .2115 .9774 -204.49 341.92)" gradientUnits="userSpaceOnUse">
   <stop stop-color="#fffa5f" offset="0"/>
   <stop stop-color="#b53a00" offset="1"/>
  </radialGradient>
  <radialGradient id="b" cx="335.71" cy="-178.68" r="21.1" gradientTransform="matrix(.9774 -.2115 .2115 .9774 -204.49 341.92)" gradientUnits="userSpaceOnUse">
   <stop stop-color="#fffa5f" offset="0"/>
   <stop stop-color="#fef85e" offset=".3945"/>
   <stop stop-color="#fcf15b" offset=".5366"/>
   <stop stop-color="#f7e655" offset=".6379"/>
   <stop stop-color="#f1d54c" offset=".7199"/>
   <stop stop-color="#e8bf42" offset=".7901"/>
   <stop stop-color="#dea334" offset=".8522"/>
   <stop stop-color="#d18324" offset=".9084"/>
   <stop stop-color="#c35f12" offset=".9583"/>
   <stop stop-color="#b53a00" offset="1"/>
  </radialGradient>
 </defs>
 <path d="m75.554,34.021c-2.276,0-4.553.027-6.829.112-.542-2.69-1.499-5.292-2.812-7.7-.675-1.238-1.904-1.868-.712-2.955 .817-.742 1.614-1.499 2.405-2.266 1.534-1.484 4.518-3.664 3.053-6.103-1.456-2.42-5.768-7.489-8.824-5.3-1.966,1.408-3.637,3.505-5.285,5.268-1.109,1.191-6.079-2.019-7.94-2.585-1.383-.422-2.669-.005-2.585-1.65 .061-1.145.091-2.295.11-3.443 .029-1.766.526-4.638-.967-6.007-1.626-1.49-7.904-1.317-9.775-.355-1.751.897-1.512,3.338-1.502,4.962 .006,1.212.022,2.421.054,3.634 .045,1.748.608,1.887-1.297,2.326-2.665.613-5.243,1.587-7.643,2.895-1.635.891-1.323.469-2.458-.749-1.08-1.159-2.185-2.29-3.303-3.409-3.588-3.587-6.938.866-9.342,3.715-1.482,1.756-.86,3.437.659,4.958 .94.937 1.885,1.869 2.839,2.788 1.814,1.749 1.494,1.547.268,3.676-1.272,2.204-2.236,4.583-2.856,7.05-.538,2.143-4.221,1.138-6.315,1.138-4.88,0-3.97,4.336-4.013,7.907-.059,5.062 4.037,4.401 8.065,4.328 1.823-.035 2.063-.608 2.651,1.292 .41,1.33.923,2.629 1.53,3.881 .603,1.245 1.299,2.446 2.078,3.589 1.181,1.734-.103,1.912-1.475,3.219-1.45,1.377-4.245,3.279-4.357,5.478-.093,1.836 1.97,3.238 3.11,4.376s2.542,3.212 4.384,3.115c2.411-.124 4.662-3.483 6.191-5.085 .67-.705 1.336-1.413 1.987-2.132 1.457.819 2.987,1.518 4.56,2.083 1.611.579 3.271,1.021 4.955,1.323-.117,1.381-.179,2.767-.216,4.15-.056,2.043-.794,5.784.937,7.375 1.45,1.33 4.274.718 6.046.755 1.539.032 3.713.273 4.658-1.268 1.423-2.325.567-6.595.474-9.202-.064-1.77-.613-1.812 1.316-2.313 1.839-.477 3.633-1.124 5.351-1.935 2.115-.996 2.126-1.662 3.718.104 1.083,1.199 2.2,2.366 3.335,3.518 1.744,1.772 3.65,3.677 5.99,1.703 1.623-1.372 4.599-3.696 5.214-5.803 .738-2.532-2.989-5.036-4.515-6.501-1.354-1.296-2.863-1.679-1.729-3.405 .967-1.472 1.793-3.041 2.464-4.67 .505-1.235.921-2.506 1.243-3.803 1.455.095 2.914.143 4.371.168 2.102.035 5.828.633 6.562-2.087 .995-3.7 1.15-10.16-3.828-10.16m-35.929,17.164c-6.418,0-12.192-5.092-12.192-11.666s5.774-11.669 12.192-11.669 12.191,5.095 12.191,11.669-5.774,11.666-12.191,11.666" fill="url(#a)"/>
 <path d="m40.02,1.119c1.342-.021 2.861-.244 4.142.22 2.155.786 1.528,4.293 1.499,6.013-.015.926-.675,4.097-.195,4.848 .493.764 5.582,1.636 6.676,2.136 4.161,1.896 3.3,2.605 6.403-.611 1.61-1.667 4.146-5.481 6.721-3.489 1.604,1.245 5.959,5 5.183,7.001-.788,2.021-3.233,3.728-4.782,5.171-1.765,1.643-2.033,1.13-.824,3.115 1.396,2.293 2.453,4.79 3.113,7.395 .364,1.445-.05,1.712 1.228,1.691 2.456-.041 6.228-.781 8.56.242 2.126.935 1.368,5.531 1.345,7.574-.058,5.104-7.307,3.408-10.806,3.189 .094.007-4.102,8.96-4.795,9.93-.332.46 4.441,4.563 5.059,5.154 2.984,2.876 1.705,4.426-.914,7.058-3.645,3.664-4.76,3.333-8.414-.44-1.295-1.342-2.573-2.708-3.769-4.137-.315-.378-3.632,1.677-4.223,1.922-.892.371-5.375,1.115-5.759,1.735-.604.979.188,4.836.202,6.026 .057,5.148-.54,6.328-5.647,6.328-1.347,0-2.843.249-4.131-.22-2.416-.877-1.523-5.442-1.47-7.35 .023-.906.706-3.869.259-4.623-.343-.576-5.067-1.279-5.934-1.611-.475-.183-4.083-2.118-4.256-1.937l-2.764,2.88c-1.195,1.247-3.462,4.46-5.393,4.402-1.694-.028-6.012-4.56-6.7-6.104-1.687-3.793 6.08-5.67 6.633-8.429 .026-.129-5.966-10.475-5.188-10.486-2.17.029-4.418.248-6.581.092-4.209,0-3.547-3.653-3.52-6.762-.095-4.463 2.185-4.571 5.932-4.494l3.873.076c.268.007 1.407-4.579 1.641-5.162 .81-2.009 1.874-3.878 3.108-5.654 .264-.379-1.166-1.416-1.448-1.689-2.031-1.977-6.291-4.753-3.534-7.726 1.268-1.364 3.95-4.821 5.796-4.821 2.263,0 5.058,4.079 6.444,5.533 1.833,1.919 3.836-.661 6.121-1.526 2.382-.901 5.611-.221 5.563-2.985-.036-1.967-.239-4.008-.105-5.969-.002-3.75 2.687-3.554 5.651-3.506m2.058-.985c-2.227,0-5.925-.664-7.59.958-1.88,1.863-1.023,6.483-.983,8.861 .034,2.175-1.824,1.699-3.727,2.328-.885.292-5.713,2.788-6.054,2.429-1.747-1.838-4.048-5.273-6.618-5.98-2.515-.696-4.577,2.296-6.14,3.909-3.467,3.332-2.483,5.371.59,8.359 .953.925 1.903,1.853 2.859,2.775-1.529,2.237-2.735,4.69-3.561,7.271-.822,2.569-.415,2.617-2.984,2.568-1.486-.029-3.047-.185-4.532.001-3.906.49-3.292,4.373-3.316,7.35-.037,4.914 1.913,5.847 6.39,5.778 1.352-.022 2.703-.047 4.055-.064 .674,2.526 1.708,4.952 3.061,7.191 .83,1.379 1.979,1.715.622,2.959-.965.884-1.914,1.789-2.851,2.707-1.384,1.356-3.462,3.169-2.593,5.361 .708,1.791 4.79,5.876 6.581,6.586 2.8,1.109 5.344-2.629 6.999-4.35 .824-.857 1.642-1.717 2.473-2.566 2.378,1.295 4.927,2.27 7.563,2.896 1.84.438 1.297.504 1.218,2.173-.056,1.128-.086,2.257-.105,3.385-.035,2.094-.559,5.532 1.759,6.699 1.868.94 5.77.588 7.905.426 4.973-.383 3.567-7.174 3.451-10.605-.056-1.669-.584-1.798 1.212-2.28 1.28-.346 2.54-.774 3.764-1.279 1.223-.506 2.414-1.09 3.563-1.75 .632.74 1.286,1.463 1.95,2.175 2.612,2.807 5.777,7.423 9.583,3.753 1.648-1.589 4.888-3.992 4.933-6.323 0-2.49-3.372-4.814-4.993-6.371-1.254-1.208-2.244-1.367-1.246-2.927 1.338-2.097 2.4-4.368 3.142-6.741 1.148-3.671 10.582,2.029 11.5-4.033 .328-2.165.641-7.604-.873-9.139-1.809-1.855-6.19-1.037-8.511-.998-2.299.039-1.812-1.658-2.553-3.677-.678-1.845-3.457-5.239-2.072-6.511 3.829-3.514 7.837-6.313 3.14-10.799-1.571-1.618-3.624-4.599-6.147-3.913-2.394.65-4.579,3.82-6.22,5.514-1.487,1.538-2.457.018-4.272-.802-1.594-.718-6.008-1.318-5.93-2.949 .197-4.224 1.405-10.355-4.442-10.355" fill="url(#h)"/>
 <path d="m26.958,39.519c0,15.738 25.333,15.738 25.333,0s-25.333-15.738-25.333,0m.956,0c0-14.505 23.421-14.505 23.421,0s-23.421,14.505-23.421,0" fill="url(#g)"/>
 <path d="m39.625 19.257c-11.218 0-21.907 8.55-21.907 20.262s10.685 20.262 21.907 20.262 21.903-8.549 21.903-20.262-10.686-20.262-21.903-20.262m0 37.409c-9.498 0-18.542-7.235-18.542-17.147s9.044-17.149 18.542-17.149 18.542 7.233 18.542 17.149c0 9.914-9.044 17.147-18.542 17.147" fill="url(#f)"/>
 <path d="m14.503,28.834c.839-1.288 1.688-2.568 2.587-3.815-1.349-.277-2.197,2.837-2.587,3.815m50.695-17.198c-.908-3.603-6.239,2.539-7.148,3.517-.274.293-1.843,2.415-2.334,2.27-2.959-2.188-6.414-3.661-9.998-4.455-.649,2.192 5.004,2.803 6.675,3.64 1.291.644 2.56,2.617 3.808,1.468 2.068-1.903 3.955-4.08 6.198-5.781 .541-.409 3.08-.642 2.906.183-.036-.281-.072-.561-.107-.842m-40.632,5.871c1.995-1.275 4.208-2.171 6.519-2.678 1.566-.344 3.701.102 3.042-2.129-1.811.338-10.188,2.292-9.561,4.807" fill="#ede0a3"/>
 <path d="m44.165 2.194c0 1.417-8.603 1.417-8.603 0s8.603-1.415 8.603 0" fill="#ede0a3"/>
 <path d="m39.866,77.54c-.405,0-4.303-.079-4.303.774 0,1.166 8.605,1.166 8.605,0 0-.854-3.897-.774-4.302-.774" fill="#b0833e"/>
 <path d="m6.647,44.001c-.407,0-4.303-.08-4.303.774 0,1.157 8.603,1.156 8.603,0 0-.852-3.895-.774-4.3-.774" fill="#b0833e"/>
 <path d="m73.403,44.001c-.405,0-4.303-.078-4.303.774 0,1.156 8.604,1.156 8.604,0 .001-.852-3.896-.774-4.301-.774" fill="#b0833e"/>
 <path d="m10.601,64.151c-.783,0 1.358,2.592 1.411,2.651 .873.984 2.873,3.532 4.382,3.532 .021.015-1.194-2.4-1.469-2.707-.865-.97-2.834-3.477-4.324-3.476" fill="#b0833e"/>
 <path d="m56.967,63.198c-.349,0 4.538,7.526 5.932,6.131 .9-.895-4.788-6.131-5.932-6.131" fill="#b0833e"/>
 <path d="m16.102,10.062c.634.633-5.617,6.887-6.253,6.252-.631-.633 5.62-6.884 6.253-6.252" fill="#ede0a3"/>
 <path d="m69.551 16.887c-1.185 0-6.773 5.651-6.162 6.284 1.112 1.115 6.187-6.284 6.162-6.284" fill="#a58554"/>
 <path d="m69.869 64.044c-1.185 0-6.759 5.687-6.161 6.285 1.178 1.122 6.152-6.285 6.161-6.285" fill="#b0833e"/>
 <path d="m22.547,64.044c-1.113,0-2.783,2.063-3.461,2.74-.281.279-2.785,3.553-2.693,3.55 1.376,1.103 6-6.29 6.154-6.29" fill="#b0833e"/>
 <path d="m16.512,69.836c-.044.164-.084.329-.126.493 .412.414-.242-1.411.126-.493" fill="#937342"/>
 <path d="m10.526,35.296c0,.81-7.441-.318-7.802.754-.223.655-.294,6.703-.742,6.655-1.033-.11-.136-6.064-.047-6.838 .214-1.91 8.591-1.166 8.591-.571" fill="#ede0a3"/>
 <path d="m14.174,60.454c-.216.217-2.765,2.866-3.212,2.421-.589-.59 5.042-6.224 5.635-5.632 .444.443-2.206,2.994-2.423,3.211" fill="#ede0a3"/>
 <path d="m77.624,35.417c0,.718-8.96.718-8.96,0s8.96-.719 8.96,0" fill="#ede0a3"/>
 <path d="m61.051,44.833c-4.763,14.598-25.329,20.1-36.561,9.347 0,2.249 4.75,4.944 6.313,5.771 5.457,2.885 11.905,2.881 17.651.854 7.262-2.558 11.439-8.577 12.597-15.972m.278-1.198c-.186.374-.278.772-.278,1.197-.162.499.435-1.197.278-1.197" fill="#7d6135"/>
 <path d="m54.415,54.466c-5.016,4.107-12.059,5.937-18.453,5.032 6.517,1.017 13.396-.748 18.453-5.032" fill="#836432"/>
 <path d="m21.621,36.65c0-5.568 4.938-10.957 9.665-13.104 5.146-2.338 10.859-2.378 15.962.063 .655.313 8.122,4.651 7.18,5.866 .249-.322-4.717-3.989-5.088-4.199-4.707-2.678-10.544-2.769-15.627-1.169-4.67,1.468-12.092,7.034-12.092,12.543" fill="#faecac"/>
 <path d="m17.644,36.514c0-6.791 6.518-13.377 12.209-15.916 6.2-2.766 13.096-2.903 19.226.088 2.27,1.109 4.428,2.549 6.243,4.313 .097.097 1.952,2.339 1.617,2.353-.392.015-1.301-1.387-1.532-1.638-1.341-1.454-2.865-2.736-4.558-3.763-5.68-3.437-12.859-3.537-19.021-1.373-4.974,1.745-9.08,5.234-11.673,9.811-.862,1.519-2.511,4.575-2.511,6.125" fill="#faecac"/>
 <path d="m58.153,39.915c.047,0-1.07,3.952-1.166,4.185-1.226,3.045-3.232,5.755-5.869,7.727-8.563,6.4-20.332,4.829-27.136-3.096 9.196,13.329 33.627,8.3 34.174-8.815" fill="#9e8860"/>
 <path d="m52.999,51.396c-.521.501-1.07.971-1.648,1.407 .58-.432 1.131-.9 1.648-1.407m-29.418-3.045c-.239,0 3.056,3.445 3.315,3.637-.566-.495-2.745-3.637-3.315-3.637" fill="#c4a572"/>
 <path d="m119.802,83.304c-2.226.482-4.443.989-6.652,1.555-1.097-2.515-2.582-4.854-4.376-6.931-.922-1.069-2.254-1.423-1.319-2.738 .641-.897 1.26-1.807 1.871-2.724 1.186-1.774 3.641-4.536 1.692-6.611-1.935-2.058-7.221-6.098-9.745-3.313-1.625,1.792-2.812,4.195-4.051,6.268-.832,1.398-6.368-.688-8.31-.847-1.438-.121-2.608.559-2.874-1.067-.182-1.131-.396-2.261-.62-3.39-.346-1.729-.468-4.643-2.216-5.664-1.905-1.113-8.005.383-9.63,1.719-1.522,1.249-.772,3.584-.418,5.17 .262,1.181.533,2.361.819,3.541 .415,1.697.994,1.714-.773,2.547-2.478,1.16-4.789,2.659-6.859,4.444-1.409,1.217-1.193.739-2.561-.212-1.3-.904-2.619-1.774-3.949-2.632-4.265-2.747-6.598,2.313-8.346,5.606-1.075,2.031-.112,3.541 1.694,4.706 1.116.716 2.238,1.428 3.364,2.125 2.143,1.325 1.788,1.196 1.04,3.536-.778,2.424-1.217,4.952-1.301,7.493-.071,2.209-3.884,2.007-5.93,2.45-4.77,1.03-2.964,5.077-2.251,8.577 1.015,4.959 4.876,3.447 8.799,2.522 1.772-.42 1.885-1.031 2.864.704 .681,1.214 1.457,2.374 2.316,3.468 .851,1.089 1.785,2.115 2.79,3.069 1.521,1.444.303,1.89-.761,3.458-1.129,1.652-3.456,4.103-3.1,6.274 .298,1.815 2.611,2.75 3.965,3.621s3.164,2.601 4.943,2.116c2.329-.629 3.819-4.39 4.975-6.278 .509-.83 1.008-1.665 1.49-2.504 1.6.49 3.241.851 4.899,1.07 1.697.226 3.413.307 5.122.245 .179,1.373.412,2.741.668,4.102 .377,2.009.446,5.821 2.474,7.01 1.702.994 4.331-.2 6.07-.54 1.51-.294 3.686-.52 4.285-2.225 .897-2.572-.843-6.565-1.484-9.095-.437-1.716-.981-1.642.799-2.539 1.695-.855 3.313-1.867 4.82-3.021 1.856-1.422 1.727-2.075 3.655-.687 1.311.942 2.65,1.846 4.004,2.732 2.079,1.364 4.345,2.823 6.213.397 1.297-1.683 3.714-4.587 3.869-6.773 .187-2.632-3.987-4.29-5.786-5.4-1.598-.979-3.154-1.034-2.41-2.962 .634-1.643 1.109-3.351 1.42-5.085 .231-1.314.37-2.646.409-3.979 1.443-.219 2.881-.479 4.309-.761 2.063-.41 5.832-.615 5.972-3.429 .194-3.822-1.021-10.17-5.888-9.118m-31.487,24.377c-6.271,1.357-12.991-2.399-14.383-8.824s3.177-12.626 9.447-13.984c6.272-1.354 12.994,2.401 14.385,8.827s-3.176,12.623-9.449,13.981" fill="url(#e)"/>
 <path d="m78.112,58.663c1.308-.303 2.746-.843 4.096-.661 2.271.313 2.399,3.874 2.737,5.56 .181.91.205,4.15.835,4.782 .642.64 5.8.417 6.976.674 4.466.975 3.776,1.848 6.129-1.952 1.221-1.97 2.893-6.235 5.829-4.833 1.832.878 6.882,3.626 6.546,5.748-.341,2.141-2.37,4.327-3.579,6.064-1.377,1.98-1.747,1.535-.147,3.219 1.85,1.948 3.411,4.163 4.607,6.572 .661,1.333.315,1.682 1.557,1.393 2.394-.561 5.922-2.082 8.418-1.576 2.275.467 2.508,5.116 2.915,7.118 1.026,5.002-6.421,4.877-9.885,5.403 .094-.013-2.112,9.625-2.586,10.719-.228.522 5.306,3.52 6.033,3.968 3.526,2.181 2.603,3.965.601,7.092-2.788,4.354-3.946,4.264-8.314,1.349-1.552-1.037-3.088-2.101-4.561-3.243-.387-.304-3.195,2.406-3.72,2.771-.794.552-5.018,2.228-5.262,2.915-.385,1.085 1.206,4.686 1.471,5.847 1.146,5.02.81,6.3-4.181,7.381-1.315.283-2.728.844-4.085.659-2.547-.35-2.639-4.998-2.992-6.874-.169-.89-.126-3.93-.723-4.572-.458-.49-5.223-.179-6.141-.321-.501-.078-4.438-1.205-4.57-.989l-2.091,3.396c-.905,1.472-2.44,5.094-4.341,5.444-1.662.329-6.84-3.183-7.839-4.55-2.451-3.35 4.743-6.826 4.7-9.641-.002-.13-8.046-8.978-7.289-9.152-2.114.488-4.264,1.18-6.413,1.482-4.115.892-4.24-2.818-4.87-5.863-1.037-4.343 1.168-4.931 4.848-5.648l3.801-.743c.26-.049.406-4.771.51-5.392 .368-2.134 1.013-4.188 1.843-6.185 .18-.425-1.438-1.137-1.771-1.344-2.404-1.502-7.155-3.314-5.087-6.804 .949-1.601 2.841-5.546 4.645-5.938 2.211-.478 5.805,2.917 7.467,4.045 2.198,1.487 3.609-1.458 5.66-2.788 2.137-1.386 5.438-1.4 4.806-4.094-.449-1.914-1.08-3.865-1.363-5.812-.796-3.667 1.873-4.044 4.78-4.626m1.804-1.396c-2.177.469-5.932.605-7.216,2.542-1.445,2.219.37,6.553.915,8.869 .492,2.117-1.425,2.046-3.151,3.062-.803.473-4.994,3.934-5.401,3.655-2.097-1.428-5.073-4.298-7.734-4.446-2.607-.149-3.988,3.212-5.175,5.119-2.685,3.99-1.291,5.776 2.344,8.046 1.128.701 2.253,1.409 3.381,2.107-1.021,2.51-1.682,5.163-1.941,7.861-.259,2.685.148,2.645-2.375,3.14-1.457.285-3.017.466-4.428.961-3.715,1.305-2.293,4.971-1.686,7.885 1.003,4.812 3.105,5.312 7.467,4.294 1.314-.306 2.632-.618 3.948-.919 1.194,2.327 2.719,4.479 4.515,6.381 1.101,1.173 2.296,1.257 1.231,2.761-.756,1.067-1.49,2.153-2.215,3.249-1.064,1.618-2.711,3.83-1.398,5.787 1.07,1.602 5.926,4.729 7.824,5.045 2.971.492 4.668-3.698 5.922-5.732 .621-1.013 1.239-2.023 1.875-3.031 2.597.766 5.293,1.179 8.002,1.231 1.892.04 1.375.218 1.65,1.868 .186,1.112.393,2.223.614,3.329 .408,2.054.625,5.525 3.135,6.178 2.026.521 5.763-.647 7.815-1.258 4.781-1.428 1.971-7.769 1.131-11.097-.406-1.617-.953-1.631.702-2.484 1.18-.608 2.32-1.292 3.408-2.047 1.089-.753 2.13-1.575 3.112-2.462 .776.589 1.567,1.158 2.365,1.712 3.146,2.192 7.215,6.033 10.16,1.641 1.275-1.899 3.934-4.935 3.484-7.222-.525-2.435-4.314-3.993-6.228-5.17-1.481-.917-2.484-.862-1.84-2.599 .865-2.331 1.425-4.777 1.646-7.254 .347-3.829 10.773-.255 10.388-6.373-.138-2.188-.983-7.568-2.786-8.747-2.16-1.432-6.271.296-8.53.824-2.237.524-2.12-1.237-3.272-3.056-1.053-1.658-4.486-4.389-3.403-5.925 2.999-4.243 6.324-7.828.785-11.217-1.879-1.25-4.517-3.73-6.837-2.524-2.202,1.14-3.667,4.701-4.914,6.705-1.127,1.818-2.395.537-4.344.12-1.708-.366-6.149-.017-6.42-1.628-.693-4.17-.811-10.418-6.525-9.181" fill="url(#d)"/>
 <path d="m73.47,98.957c3.328,15.383 28.089,10.024 24.762-5.357s-28.091-10.023-24.762,5.357m.934-.201c-3.069-14.177 19.821-19.131 22.89-4.955s-19.822,19.131-22.89,4.955" fill="url(#c)"/>
 <path d="m81.564 76.474c-10.967 2.373-19.604 12.992-17.126 24.438s14.729 17.543 25.696 15.171 19.601-12.99 17.122-24.438c-2.478-11.445-14.73-17.543-25.692-15.171m7.914 36.563c-9.284 2.01-19.654-3.146-21.751-12.836s5.212-18.673 14.495-20.682 19.652 3.146 21.749 12.838-5.212 18.673-14.493 20.68" fill="url(#b)"/>
 <path d="m59.036,91.148c.547-1.435 1.106-2.866 1.722-4.275-1.379.014-1.548,3.24-1.722,4.275m45.909-27.53c-1.65-3.33-5.56,3.8-6.242,4.95-.207.344-1.291,2.748-1.801,2.71-3.355-1.51-7.044-2.219-10.714-2.238-.171,2.278 5.482,1.68 7.294,2.144 1.399.356 3.055,2.017 4.033.631 1.619-2.297 3.001-4.825 4.834-6.962 .44-.511 2.875-1.278 2.88-.437l-.284-.798m-38.468,14.332c1.679-1.668 3.652-3.012 5.802-3.996 1.46-.667 3.641-.684 2.523-2.724-1.698.713-9.473,4.395-8.325,6.72" fill="#ede0a3"/>
 <path d="m82.393,58.839c.298,1.384-8.11,3.205-8.41,1.817-.3-1.379 8.11-3.2 8.41-1.817" fill="#ede0a3"/>
 <path d="m94.128,133.387c-.396.087-4.223.834-4.044,1.669 .248,1.138 8.658-.683 8.412-1.821-.181-.833-3.974.069-4.368.152" fill="#b0833e"/>
 <path d="m54.567,107.635c-.398.087-4.223.832-4.042,1.665 .244,1.132 8.651-.689 8.407-1.818-.179-.832-3.972.067-4.365.153" fill="#b0833e"/>
 <path d="m119.812,93.515c-.396.087-4.222.832-4.04,1.666 .243,1.129 8.651-.692 8.407-1.82-.179-.831-3.97.068-4.367.154" fill="#b0833e"/>
 <path d="m62.692,126.493c-.766.167 1.875,2.245 1.938,2.294 1.063.775 3.558,2.845 5.031,2.524 .023.01-1.676-2.092-2.008-2.334-1.049-.766-3.506-2.801-4.961-2.484" fill="#b0833e"/>
 <path d="m107.808,115.754c-.341.072 6.027,6.396 7.095,4.737 .688-1.065-5.978-4.979-7.095-4.737" fill="#b0833e"/>
 <path d="m56.626,72.465c.754.484-4.031,7.919-4.789,7.433-.749-.486 4.039-7.917 4.789-7.433" fill="#ede0a3"/>
 <path d="m110.312,67.829c-1.161.25-5.426,6.957-4.694,7.447 1.324.853 4.719-7.452 4.694-7.447" fill="#a58554"/>
 <path d="m120.598,113.852c-1.159.251-5.403,6.987-4.693,7.446 1.389.845 4.685-7.444 4.693-7.446" fill="#b0833e"/>
 <path d="m74.347,123.863c-1.088.233-2.285,2.605-2.804,3.407-.215.335-1.972,4.063-1.882,4.041 1.578.787 4.535-7.417 4.686-7.448" fill="#b0833e"/>
 <path d="m69.674,130.798c-.009.171-.017.34-.021.509 .491.317-.534-1.327.021-.509" fill="#937342"/>
 <path d="m56.515,98.307c.173.791-7.34,1.262-7.465,2.387-.079.688 1.13,6.614.683,6.662-1.033.112-1.416-5.9-1.494-6.675-.193-1.912 8.151-2.955 8.276-2.374" fill="#ede0a3"/>
 <path d="m65.403,122.124c-.166.257-2.096,3.386-2.627,3.044-.701-.45 3.61-7.149 4.314-6.696 .53.34-1.521,3.394-1.687,3.652" fill="#ede0a3"/>
 <path d="m122.123,84.231c.15.701-8.608,2.598-8.759,1.897s8.605-2.598 8.759-1.897" fill="#ede0a3"/>
 <path d="m107.914,96.942c-1.566,15.272-20.503,25-33.756,16.868 .477,2.198 5.688,3.827 7.391,4.304 5.944,1.664 12.245.298 17.433-2.899 6.556-4.037 9.364-10.802 8.932-18.273m.017-1.233c-.097.405-.105.815-.017,1.232-.054.518.173-1.263.017-1.232" fill="#7d6135"/>
 <path d="m103.46 107.76c-4.033 5.075-10.527 8.353-16.969 8.823 6.585-0.387 12.935-3.566 16.969-8.823" fill="#836432"/>
 <path d="m67.646,97.283c-1.18-5.443 2.509-11.752 6.674-14.853 4.536-3.373 10.11-4.621 15.615-3.314 .707.169 8.921,2.828 8.259,4.214 .174-.367-5.455-2.9-5.862-3.027-5.167-1.622-10.893-.476-15.52,2.164-4.254,2.421-10.333,9.432-9.166,14.816" fill="#faecac"/>
 <path d="m63.729,97.992c-1.438-6.638 3.541-14.452 8.567-18.14 5.473-4.013 12.185-5.606 18.81-3.979 2.453.605 4.865,1.556 7.014,2.894 .115.075 2.402,1.875 2.076,1.96-.378.097-1.564-1.082-1.843-1.278-1.618-1.137-3.379-2.068-5.25-2.714-6.277-2.156-13.314-.737-18.881,2.682-4.492,2.757-7.767,7.036-9.333,12.059-.521,1.664-1.487,5.002-1.16,6.516" fill="#faecac"/>
 <path d="m104.042,92.747c.046-.009-.21,4.09-.254,4.336-.557,3.236-1.941,6.31-4.103,8.795-7.014,8.066-18.85,9.021-27.177,2.714 11.809,11.082 34.621.999 31.537-15.845" fill="#9e8860"/>
 <path d="m101.433,105.059c-.403.602-.839,1.176-1.314,1.723 .478-.546.916-1.12 1.314-1.723m-29.397,3.247c-.234.049 3.715,2.719 4.009,2.853-.657-.365-3.452-2.974-4.009-2.853" fill="#c4a572"/>
</svg>
