<?xml version="1.0" standalone="no"?>
<!DOCTYPE svg PUBLIC "-//W3C//DTD SVG 20010904//EN"
 "http://www.w3.org/TR/2001/REC-SVG-20010904/DTD/svg10.dtd">
<svg version="1.0" xmlns="http://www.w3.org/2000/svg"
 width="331.000000pt" height="331.000000pt" viewBox="0 0 331.000000 331.000000"
 preserveAspectRatio="xMidYMid meet">
<metadata>
Created by potrace 1.14, written by Peter Selinger 2001-2017
</metadata>
<g transform="translate(0.000000,331.000000) scale(0.100000,-0.100000)"
fill="#000000" stroke="none">
<path d="M1011 2607 c-31 -6 -40 -11 -31 -17 8 -5 17 -7 21 -4 4 2 19 0 33 -6
29 -11 33 -38 16 -102 -13 -45 -39 -61 -86 -55 -28 4 -38 0 -58 -24 -42 -49
-85 -189 -81 -261 2 -31 -3 -32 -55 -18 -145 39 -330 44 -437 12 -72 -22 -186
-89 -196 -115 -3 -8 -1 -19 5 -25 8 -8 33 1 87 28 108 54 229 70 358 45 80
-15 177 -56 186 -78 8 -20 -18 -67 -53 -95 -37 -29 -103 -148 -95 -172 5 -16
66 -70 78 -70 3 0 10 14 17 30 16 39 21 33 26 -27 2 -26 7 -59 10 -73 6 -23 7
-23 14 -5 3 10 5 42 3 70 -9 106 4 205 26 205 4 0 29 -38 55 -86 46 -80 50
-85 79 -82 29 3 33 9 84 133 65 156 96 248 91 272 -2 14 -11 17 -36 15 -22 -3
-34 1 -38 12 -6 17 12 163 24 197 7 18 9 18 47 -2 26 -14 58 -21 97 -22 32 0
58 -4 58 -9 0 -4 -7 -8 -16 -8 -11 0 -15 -8 -13 -28 4 -37 -5 -48 -49 -63 -57
-18 -63 -25 -47 -62 11 -26 11 -36 -1 -61 -20 -45 -114 -298 -119 -320 -3 -11
3 -28 11 -38 15 -16 53 -17 557 -18 372 0 544 -4 553 -11 8 -6 33 -42 56 -80
23 -38 46 -69 50 -69 4 0 13 10 19 23 6 12 13 23 14 25 5 6 50 -21 61 -36 14
-19 30 -9 51 31 24 47 105 152 139 179 38 32 60 40 112 44 65 3 91 12 139 46
47 31 63 60 55 91 -8 29 -54 43 -142 42 -118 -1 -105 14 27 29 25 3 67 22 110
49 105 66 203 107 344 141 100 24 129 35 129 47 0 9 -8 19 -19 22 -22 5 -181
1 -231 -7 -187 -30 -486 -138 -768 -280 -81 -40 -174 -85 -207 -99 -258 -111
-256 -111 -310 -77 -18 11 -35 27 -38 35 -9 23 -69 28 -135 11 -33 -8 -86 -18
-117 -21 -101 -11 -132 34 -88 128 51 108 60 140 51 174 -5 18 -17 37 -28 43
-23 12 -26 41 -7 71 10 17 9 22 -5 33 -9 7 -31 11 -48 10 -25 -2 -33 3 -45 27
-15 28 -18 29 -78 27 -74 -2 -157 29 -157 60 0 30 28 60 76 78 34 13 50 26 65
55 26 51 24 68 -7 79 -21 8 -34 6 -60 -9 -27 -16 -35 -17 -41 -7 -15 25 -46
33 -92 23z"/>
<path d="M2487 2134 c-1 -1 -22 -5 -47 -8 -75 -10 -99 -15 -270 -56 -267 -65
-396 -78 -545 -56 l-40 6 104 -100 c81 -78 110 -100 132 -100 28 0 156 53 424
177 83 38 182 82 220 98 85 35 94 41 54 40 -17 0 -31 -1 -32 -1z"/>
<path d="M1458 2043 c-51 -120 -59 -143 -56 -165 3 -21 7 -23 63 -22 72 1 150
14 181 32 14 8 14 12 -8 33 -13 13 -41 47 -62 74 -45 58 -73 85 -90 85 -7 0
-19 -17 -28 -37z"/>
<path d="M337 1719 c-109 -25 -202 -104 -260 -221 -93 -187 -94 -372 -3 -564
119 -251 434 -308 612 -111 45 49 105 162 118 218 5 25 5 26 -44 24 -57 -3
-74 -14 -101 -66 -25 -51 -83 -105 -138 -131 -60 -28 -171 -30 -218 -5 -80 43
-155 153 -177 260 -50 243 89 466 293 468 92 1 155 -34 212 -119 56 -83 79
-102 121 -102 23 0 41 5 44 13 13 36 -66 187 -128 243 -92 82 -219 118 -331
93z"/>
<path d="M324 1516 c-32 -15 -62 -39 -82 -67 -18 -23 -32 -46 -32 -49 0 -4 45
-6 99 -6 92 0 102 -1 125 -24 15 -13 26 -32 26 -42 0 -10 9 -36 19 -57 11 -21
18 -44 17 -52 -14 -74 -22 -93 -48 -118 -38 -37 -84 -48 -175 -44 l-72 4 13
-32 c7 -18 25 -47 40 -65 49 -62 193 -83 260 -39 15 10 40 45 57 80 49 104
107 139 202 123 127 -21 137 -15 135 88 0 60 -4 76 -18 84 -10 5 -69 9 -131 8
-119 -2 -139 2 -139 29 0 28 -38 97 -76 136 -65 70 -133 83 -220 43z"/>
</g>
</svg>
